# This file uses centimeters as units for non-parametric coordinates.

mtllib LightSources2.mtl
g default
v 0.931835 1.097155 -0.677018
v 0.355929 1.097155 -1.095438
v -0.355929 1.097155 -1.095438
v -0.931835 1.097155 -0.677018
v -1.151812 1.097155 0.000000
v -0.931835 1.097155 0.677018
v -0.355929 1.097155 1.095438
v 0.355929 1.097155 1.095438
v 0.931835 1.097155 0.677018
v 1.151812 1.097155 0.000000
v 1.269397 1.490661 -0.922271
v 0.484867 1.490661 -1.492266
v -0.484867 1.490661 -1.492266
v -1.269397 1.490661 -0.922271
v -1.569061 1.490661 0.000000
v -1.269397 1.490661 0.922271
v -0.484866 1.490661 1.492266
v 0.484867 1.490661 1.492266
v 1.269397 1.490661 0.922271
v 1.569061 1.490661 0.000000
v 0.809017 1.490407 -0.587785
v 0.309017 1.490407 -0.951057
v -0.309017 1.490407 -0.951056
v -0.809017 1.490407 -0.587785
v -1.000000 1.490407 0.000000
v -0.809017 1.490407 0.587785
v -0.309017 1.490407 0.951056
v 0.309017 1.490407 0.951056
v 0.809017 1.490407 0.587785
v 1.000000 1.490407 0.000000
v 0.444083 1.250165 -0.322645
v 0.169625 1.250165 -0.522051
v -0.169625 1.250165 -0.522051
v -0.444083 1.250165 -0.322645
v -0.548917 1.250165 0.000000
v -0.444083 1.250165 0.322645
v -0.169625 1.250165 0.522051
v 0.169625 1.250165 0.522051
v 0.444083 1.250165 0.322645
v 0.548917 1.250165 0.000000
v 0.444083 5.400335 -0.322645
v 0.169625 5.400335 -0.522051
v 0.000000 5.244288 0.001843
v -0.169625 5.400334 -0.522049
v -0.444083 5.400334 -0.322646
v -0.548917 5.244288 0.001843
v -0.444083 5.206010 0.322211
v -0.169625 5.182353 0.520207
v 0.169625 5.182353 0.520206
v 0.444083 5.206011 0.322209
v 0.548917 5.244288 0.001843
v -0.155128 1.204957 1.204150
v 0.155128 1.204957 1.204150
v 0.211324 1.445739 1.387819
v -0.211324 1.445739 1.387819
v 0.134682 1.490479 1.104466
v -0.134682 1.490479 1.104466
v -0.155128 1.276117 1.717063
v 0.155128 1.276117 1.717063
v 0.211324 1.393557 1.717065
v -0.211324 1.393557 1.717065
v -0.211324 1.702394 1.413622
v 0.211324 1.702394 1.413622
v 0.134682 1.724216 1.243860
v -0.134682 1.724216 1.243860
v -0.155128 1.394502 1.939289
v 0.155128 1.394502 1.939289
v 0.211324 1.492046 1.873887
v -0.211324 1.492046 1.873887
v -0.211324 1.863242 1.520273
v 0.211324 1.863242 1.520273
v 0.134682 1.905324 1.398274
v -0.134682 1.905324 1.398274
v -0.211324 1.927935 1.683607
v 0.211324 1.927935 1.683607
v 0.134682 2.018543 1.661599
v -0.134682 2.018543 1.661599
v -0.155128 1.722810 2.066526
v 0.155128 1.722810 2.066526
v 0.211324 1.688280 1.954277
v -0.211324 1.688280 1.954277
v 0.554465 1.097155 -0.402842
v 0.211787 1.097155 -0.651813
v -0.211787 1.097155 -0.651813
v -0.554465 1.097155 -0.402842
v -0.685356 1.097155 0.000000
v -0.554464 1.097155 0.402842
v -0.211787 1.097155 0.651812
v 0.211787 1.097155 0.651812
v 0.554465 1.097155 0.402842
v 0.685356 1.097155 0.000000
v 0.554465 1.015571 -0.402842
v 0.211787 1.015571 -0.651813
v 0.000000 1.015571 0.000000
v -0.211787 1.015571 -0.651813
v -0.554465 1.015571 -0.402842
v -0.685356 1.015571 0.000000
v -0.554464 1.015571 0.402842
v -0.211787 1.015571 0.651812
v 0.211787 1.015571 0.651812
v 0.554465 1.015571 0.402842
v 0.685356 1.015571 0.000000
v -0.211787 1.097155 4.943425
v 0.211787 1.097155 4.943425
v -0.211787 1.015571 4.943425
v 0.211787 1.015571 4.943425
v -0.051725 5.067466 0.075523
v -0.051725 5.725995 -0.032102
v -0.051725 5.775354 -0.136636
v -0.051725 5.067466 -0.040078
v -0.051725 6.142351 0.111998
v -0.051725 6.111690 -0.040306
v -0.051725 6.283789 0.162942
v -0.051725 6.458778 0.183049
vt 0.693122 0.543557
vt 0.656670 0.599230
vt 0.189643 0.861696
vt 0.261101 0.806798
vt 0.657667 0.666743
vt 0.101333 0.861711
vt 0.695543 0.720900
vt 0.029848 0.806840
vt 0.756087 0.741716
vt 0.002441 0.718006
vt 0.817335 0.721836
vt 0.029514 0.629108
vt 0.858916 0.668037
vt 0.342850 0.725289
vt 0.858327 0.592319
vt 0.815906 0.539016
vt 0.261383 0.629115
vt 0.190377 0.573968
vt 0.753614 0.520590
vt 0.288475 0.717974
vt 0.702098 0.613529
vt 0.722325 0.582939
vt 0.757645 0.630950
vt 0.702603 0.650684
vt 0.723572 0.680482
vt 0.757230 0.691764
vt 0.791230 0.680204
vt 0.914652 0.397773
vt 0.952464 0.397773
vt 0.790443 0.580934
vt 0.755895 0.570448
vt 0.033857 0.943698
vt 0.752716 0.002455
vt 0.053612 0.893792
vt 0.722432 0.002465
vt 0.692148 0.002475
vt 0.661712 0.017227
vt 0.631622 0.020853
vt 0.904033 0.022986
vt 0.873749 0.023006
vt 0.843537 0.020783
vt 0.813446 0.017177
vt 0.173975 0.810631
vt 0.220084 0.775204
vt 0.116990 0.810642
vt 0.070863 0.775238
vt 0.053177 0.717911
vt 0.070661 0.660529
vt 0.116590 0.624898
vt 0.220245 0.660505
vt 0.174296 0.624910
vt 0.237747 0.717878
vt 0.752833 0.394529
vt 0.783117 0.394519
vt 0.722549 0.394539
vt 0.692265 0.394549
vt 0.661980 0.394559
vt 0.631696 0.394570
vt 0.904254 0.394467
vt 0.873970 0.394488
vt 0.843685 0.394499
vt 0.813401 0.394509
vt 0.053091 0.230529
vt 0.047823 0.201754
vt 0.033944 0.356732
vt 0.024778 0.318000
vt 0.039218 0.384222
vt 0.035214 0.409314
vt 0.816706 0.857009
vt 0.807345 0.884308
vt 0.826394 0.849820
vt 0.829971 0.818148
vt 0.933220 0.857981
vt 0.935793 0.824581
vt 0.944617 0.871150
vt 0.948354 0.813021
vt 0.837318 0.863498
vt 0.828924 0.891424
vt 0.844022 0.854007
vt 0.846038 0.814419
vt 0.915605 0.859300
vt 0.917944 0.819424
vt 0.923714 0.871908
vt 0.927653 0.808189
vt 0.898393 0.859455
vt 0.900742 0.816168
vt 0.901473 0.870279
vt 0.905762 0.806740
vt 0.863010 0.867843
vt 0.858885 0.897719
vt 0.864685 0.856989
vt 0.865821 0.812818
vt 0.718112 0.577354
vt 0.695580 0.611551
vt 0.696191 0.653052
vt 0.719622 0.686311
vt 0.757166 0.698905
vt 0.795078 0.686069
vt 0.907369 0.397773
vt 0.959747 0.397773
vt 0.794141 0.574975
vt 0.755548 0.563344
vt 0.959747 0.803209
vt 0.907370 0.803209
vt 0.914652 0.803209
vt 0.952464 0.803209
vt 0.347861 0.016692
vt 0.347066 0.027580
vt 0.289195 0.012649
vt 0.285521 0.002444
vt 0.251147 0.023191
vt 0.254924 0.009069
vt 0.238208 0.026960
vt 0.222495 0.027580
vt 0.100582 0.573968
vt 0.903750 0.564268
vt 0.749639 0.466566
vt 0.660547 0.501806
vt 0.841492 0.491746
vt 0.844759 0.767053
vt 0.755808 0.795738
vt 0.666332 0.765313
vt 0.609626 0.685338
vt 0.607296 0.585059
vt 0.125614 0.583427
vt 0.132796 0.610430
vt 0.158111 0.610443
vt 0.165325 0.583417
vt 0.193125 0.718220
vt 0.183782 0.747749
vt 0.184274 0.688510
vt 0.160587 0.669967
vt 0.131030 0.669706
vt 0.107080 0.687858
vt 0.097798 0.717427
vt 0.106700 0.747119
vt 0.130393 0.765606
vt 0.159828 0.765856
vt 0.067257 0.943698
vt 0.783000 0.002445
vt 0.092288 0.925792
vt 0.102670 0.895762
vt 0.601412 0.023097
vt 0.094469 0.864986
vt 0.070792 0.845122
vt 0.601412 0.394578
vt 0.040609 0.843694
vt 0.012130 0.862162
vt 0.002441 0.892451
vt 0.010643 0.923228
vt 0.293101 0.645234
vt 0.342850 0.632430
vt 0.293101 0.712485
vt 0.903750 0.695026
vt 0.813122 0.649744
vt 0.812621 0.610932
vt 0.819325 0.608318
vt 0.819472 0.652086
vt 0.959747 0.810917
vt 0.997559 0.810917
vt 0.997559 0.803209
vt 0.997559 0.397773
vt 0.002441 0.211059
vt 0.005074 0.291894
vt 0.008346 0.252116
vt 0.007710 0.239835
vt 0.002441 0.323920
vt 0.011259 0.405033
vt 0.015263 0.379941
vt 0.011607 0.362652
vt 0.901188 0.897130
vt 0.864941 0.801918
vt 0.840144 0.804187
vt 0.925282 0.897719
vt 0.946660 0.896841
vt 0.820600 0.810614
vt 0.034720 0.294625
vt 0.333769 0.658714
vt 0.333769 0.699005
vt 0.021703 0.433447
vt 0.002441 0.420093
vt 0.306768 0.693515
vt 0.045620 0.321339
vt 0.002441 0.303874
vt 0.306768 0.664204
vt 0.037992 0.254847
vn 0.413877 -0.710072 -0.569652
vn 0.413877 -0.710072 -0.569652
vn 0.413877 -0.710072 -0.569652
vn 0.413877 -0.710072 -0.569652
vn -0.000000 -0.710072 -0.704129
vn -0.000000 -0.710072 -0.704129
vn -0.000000 -0.710072 -0.704129
vn -0.000000 -0.710072 -0.704129
vn -0.413877 -0.710072 -0.569652
vn -0.413877 -0.710072 -0.569652
vn -0.413877 -0.710072 -0.569652
vn -0.413877 -0.710072 -0.569652
vn -0.669666 -0.710072 -0.217588
vn -0.669666 -0.710072 -0.217588
vn -0.669666 -0.710072 -0.217588
vn -0.669666 -0.710072 -0.217588
vn -0.669666 -0.710072 0.217588
vn -0.669666 -0.710072 0.217588
vn -0.669666 -0.710072 0.217588
vn -0.669666 -0.710072 0.217588
vn -0.413876 -0.710072 0.569652
vn -0.413876 -0.710072 0.569652
vn -0.413876 -0.710072 0.569652
vn -0.413876 -0.710072 0.569652
vn 0.413877 -0.710072 0.569652
vn 0.413877 -0.710072 0.569652
vn 0.413877 -0.710072 0.569652
vn 0.413877 -0.710072 0.569652
vn 0.669666 -0.710072 0.217588
vn 0.669666 -0.710072 0.217588
vn 0.669666 -0.710072 0.217588
vn 0.669666 -0.710072 0.217588
vn 0.669667 -0.710072 -0.217588
vn 0.669666 -0.710072 -0.217588
vn 0.669666 -0.710072 -0.217588
vn 0.669666 -0.710072 -0.217588
vn 0.000000 -1.000000 0.000000
vn 0.000000 -1.000000 0.000000
vn 0.000000 -1.000000 0.000000
vn 0.000000 -1.000000 0.000000
vn 0.000000 -1.000000 0.000000
vn 0.000000 -1.000000 0.000000
vn 0.000000 -1.000000 -0.000000
vn 0.000000 -1.000000 -0.000000
vn 0.000000 -1.000000 0.000000
vn 0.000000 -1.000000 0.000000
vn 0.000000 -1.000000 0.000000
vn -0.085417 0.938537 0.334444
vn -0.084185 0.962116 0.259317
vn -0.000000 0.972720 0.231984
vn 0.084184 0.962116 0.259318
vn 0.085416 0.938537 0.334442
vn 0.000000 0.956890 0.290450
vn 0.000000 0.992937 0.118641
vn 0.000000 0.992938 0.118639
vn -0.000001 0.992938 0.118637
vn -0.000001 0.992938 0.118636
vn 0.000000 0.956890 0.290450
vn -0.000276 1.000000 0.000380
vn -0.000276 1.000000 0.000380
vn -0.000276 1.000000 0.000380
vn -0.000276 1.000000 0.000380
vn 0.000000 1.000000 0.000470
vn 0.000000 1.000000 0.000470
vn 0.000000 1.000000 0.000470
vn 0.000000 1.000000 0.000470
vn 0.000276 1.000000 0.000380
vn 0.000276 1.000000 0.000380
vn 0.000276 1.000000 0.000380
vn 0.000276 1.000000 0.000380
vn 0.000447 1.000000 0.000145
vn 0.000447 1.000000 0.000145
vn 0.000447 1.000000 0.000145
vn 0.000447 1.000000 0.000145
vn 0.000447 1.000000 -0.000145
vn 0.000447 1.000000 -0.000145
vn 0.000447 1.000000 -0.000145
vn 0.000447 1.000000 -0.000145
vn 0.000276 1.000000 -0.000380
vn 0.012763 0.999859 0.010917
vn 0.008318 0.993601 -0.112642
vn 0.000276 1.000000 -0.000380
vn -0.012763 0.999859 0.010918
vn -0.000276 1.000000 -0.000380
vn -0.000276 1.000000 -0.000380
vn -0.008318 0.993601 -0.112642
vn -0.000447 1.000000 -0.000145
vn -0.000447 1.000000 -0.000145
vn -0.000447 1.000000 -0.000145
vn -0.000447 1.000000 -0.000145
vn -0.000447 1.000000 0.000145
vn -0.000447 1.000000 0.000145
vn -0.000447 1.000000 0.000145
vn -0.000447 1.000000 0.000145
vn -0.287193 0.872507 0.395286
vn -0.287193 0.872507 0.395286
vn -0.287193 0.872507 0.395286
vn -0.287193 0.872507 0.395286
vn 0.000000 0.872507 0.488601
vn 0.000000 0.872507 0.488601
vn 0.000000 0.872507 0.488601
vn 0.000000 0.872507 0.488601
vn 0.287193 0.872507 0.395287
vn 0.287193 0.872507 0.395287
vn 0.287193 0.872507 0.395286
vn 0.287193 0.872507 0.395286
vn 0.464687 0.872507 0.150986
vn 0.464687 0.872507 0.150986
vn 0.464687 0.872507 0.150986
vn 0.464687 0.872507 0.150986
vn 0.464687 0.872507 -0.150987
vn 0.464687 0.872507 -0.150987
vn 0.464687 0.872507 -0.150987
vn 0.464687 0.872507 -0.150987
vn 0.287193 0.872508 -0.395286
vn 0.287193 0.872508 -0.395286
vn 0.287193 0.872507 -0.395286
vn 0.287193 0.872507 -0.395286
vn 0.000000 0.872507 -0.488601
vn 0.000000 0.872507 -0.488601
vn -0.287193 0.872507 -0.395286
vn -0.287193 0.872507 -0.395286
vn -0.287193 0.872507 -0.395286
vn -0.287193 0.872507 -0.395286
vn -0.464687 0.872507 -0.150986
vn -0.464687 0.872507 -0.150986
vn -0.464687 0.872507 -0.150986
vn -0.464687 0.872507 -0.150986
vn -0.464687 0.872507 0.150987
vn -0.464687 0.872507 0.150987
vn -0.464687 0.872507 0.150987
vn -0.464687 0.872507 0.150987
vn 0.587786 0.000000 -0.809017
vn 0.587786 0.000000 -0.809017
vn 0.587786 0.000000 -0.809017
vn 0.587786 0.000000 -0.809017
vn -0.000003 0.000000 -1.000000
vn -0.000003 0.000000 -1.000000
vn -0.000003 0.000000 -1.000000
vn -0.000003 0.000000 -1.000000
vn -0.587783 0.000000 -0.809018
vn -0.587783 0.000000 -0.809018
vn -0.587783 0.000000 -0.809018
vn -0.587783 0.000000 -0.809018
vn -0.951320 0.000070 -0.308206
vn -0.951320 0.000070 -0.308206
vn -0.951320 0.000070 -0.308206
vn -0.951320 0.000070 -0.308206
vn -0.950735 -0.000055 0.310004
vn -0.950735 -0.000055 0.310004
vn -0.950735 -0.000055 0.310004
vn -0.950735 -0.000055 0.310004
vn -0.586417 0.000234 0.810010
vn -0.586417 0.000234 0.810010
vn -0.586417 0.000234 0.810010
vn -0.586417 0.000234 0.810009
vn 0.000001 0.000469 1.000000
vn 0.000001 0.000469 1.000000
vn 0.000001 0.000469 1.000000
vn 0.000001 0.000469 1.000000
vn 0.586418 0.000234 0.810008
vn 0.586418 0.000234 0.810009
vn 0.586418 0.000234 0.810008
vn 0.586418 0.000234 0.810009
vn 0.950735 -0.000055 0.310005
vn 0.950735 -0.000055 0.310005
vn 0.950735 -0.000055 0.310005
vn 0.950735 -0.000055 0.310005
vn 0.951320 0.000070 -0.308206
vn 0.951320 0.000070 -0.308206
vn 0.951320 0.000070 -0.308206
vn 0.951320 0.000070 -0.308206
vn 0.056742 -0.675702 0.734987
vn -0.056742 -0.675703 0.734987
vn -0.042204 -0.684871 0.727441
vn 0.042204 -0.684871 0.727441
vn -0.080774 -0.659995 0.746915
vn -0.080774 -0.659995 0.746915
vn 0.080774 -0.659995 0.746915
vn 0.080774 -0.659995 0.746915
vn -0.049091 0.997831 0.043861
vn -0.090512 0.992574 0.081266
vn 0.049091 0.997831 0.043861
vn 0.090512 0.992574 0.081267
vn 0.000000 -0.990513 0.137420
vn 0.000000 -0.990513 0.137420
vn 0.000000 -0.968331 0.249669
vn 0.000000 -0.968331 0.249669
vn 0.953114 -0.302534 0.006817
vn 0.953114 -0.302534 0.006817
vn 0.940488 -0.332147 0.071833
vn 0.945679 -0.321524 0.048108
vn 0.000000 0.987672 0.156536
vn 0.000000 0.987672 0.156536
vn 0.000000 0.987672 0.156536
vn 0.000000 0.987672 0.156536
vn -0.953114 -0.302534 0.006817
vn -0.953114 -0.302534 0.006817
vn -0.945679 -0.321524 0.048108
vn -0.940488 -0.332147 0.071833
vn 0.000000 -0.100034 0.994984
vn 0.000000 -0.100034 0.994984
vn 0.000000 -0.302400 0.953181
vn 0.000000 -0.302400 0.953181
vn 0.946733 0.102802 -0.305170
vn 0.946733 0.102802 -0.305170
vn 0.933625 0.147964 -0.326268
vn 0.921616 0.183091 -0.342201
vn 0.000000 0.512202 -0.858865
vn 0.000000 0.512202 -0.858865
vn 0.000000 0.577964 -0.816062
vn 0.000000 0.577964 -0.816062
vn -0.946733 0.102802 -0.305169
vn -0.946733 0.102802 -0.305169
vn -0.921616 0.183091 -0.342201
vn -0.933625 0.147964 -0.326268
vn 0.000000 -0.882576 0.470169
vn 0.000000 -0.882576 0.470169
vn 0.882427 -0.274786 0.381857
vn 0.887724 -0.308049 0.342129
vn 0.000000 0.846843 -0.531843
vn 0.000000 0.846843 -0.531843
vn 0.000000 0.846843 -0.531843
vn 0.000000 0.846843 -0.531843
vn -0.887724 -0.308049 0.342129
vn -0.882427 -0.274786 0.381857
vn 0.000000 -0.552613 0.833438
vn 0.000000 -0.552613 0.833438
vn 0.849858 0.387136 -0.357584
vn 0.817641 0.481660 -0.315383
vn 0.000000 0.817472 -0.575968
vn 0.000000 0.817472 -0.575968
vn -0.817641 0.481659 -0.315383
vn -0.849858 0.387136 -0.357585
vn 0.000000 -0.929728 0.368247
vn 0.000000 -0.929728 0.368247
vn 0.000000 -0.929728 0.368247
vn 0.000000 -0.929728 0.368247
vn 0.757561 0.602483 -0.251229
vn 0.757561 0.602483 -0.251229
vn 0.000000 0.918683 -0.394996
vn 0.000000 0.918683 -0.394996
vn -0.757561 0.602483 -0.251229
vn -0.757561 0.602483 -0.251229
vn 0.000000 -0.361364 0.932425
vn 0.000000 -0.361364 0.932425
vn 0.000000 -0.361364 0.932425
vn 0.000000 -0.361364 0.932425
vn 0.858761 -0.188575 0.476412
vn 0.858761 -0.188575 0.476412
vn 0.000000 0.379085 -0.925362
vn 0.000000 0.379085 -0.925362
vn 0.000000 0.379085 -0.925362
vn 0.000000 0.379085 -0.925362
vn -0.858762 -0.188575 0.476412
vn -0.858762 -0.188575 0.476412
vn 0.757757 0.522389 0.391043
vn 0.757757 0.522389 0.391043
vn 0.757757 0.522389 0.391043
vn 0.757757 0.522389 0.391043
vn 0.000000 0.807558 0.589788
vn 0.000000 0.807558 0.589788
vn 0.000000 0.807558 0.589788
vn 0.000000 0.807558 0.589788
vn -0.757758 0.522388 0.391042
vn -0.757758 0.522388 0.391042
vn -0.757758 0.522388 0.391042
vn -0.757758 0.522388 0.391042
vn 0.000000 -0.748699 -0.662910
vn 0.000000 -0.748699 -0.662910
vn 0.000000 -0.748699 -0.662910
vn 0.000000 -0.748699 -0.662910
vn 0.000000 -1.000000 0.000000
vn 0.000000 -1.000000 0.000000
vn 0.000000 -1.000000 0.000000
vn 0.000000 -1.000000 0.000000
vn 0.000000 -1.000000 -0.000000
vn 0.000000 -1.000000 -0.000000
vn 0.000000 -1.000000 -0.000000
vn 0.000000 -1.000000 -0.000000
vn 0.000000 -1.000000 0.000000
vn 0.000000 -1.000000 0.000000
vn 0.000000 -1.000000 0.000000
vn 0.000000 -1.000000 0.000000
vn 0.000000 -1.000000 0.000000
vn 0.000000 -1.000000 0.000000
vn 0.000000 -1.000000 0.000000
vn 0.000000 -1.000000 0.000000
vn 0.000000 -1.000000 -0.000000
vn 0.000000 -1.000000 -0.000000
vn 0.000000 -1.000000 -0.000000
vn 0.000000 -1.000000 -0.000000
vn 0.000000 -1.000000 0.000000
vn 0.000000 -1.000000 0.000000
vn 0.000000 -1.000000 0.000000
vn 0.000000 -1.000000 0.000000
vn 0.000000 -1.000000 -0.000000
vn 0.000000 -1.000000 -0.000000
vn 0.000000 -1.000000 -0.000000
vn 0.000000 -1.000000 -0.000000
vn 0.000000 -1.000000 -0.000000
vn 0.000000 -1.000000 -0.000000
vn 0.000000 -1.000000 -0.000000
vn 0.000000 -1.000000 -0.000000
vn 0.000000 -1.000000 -0.000000
vn 0.000000 -1.000000 -0.000000
vn 0.000000 -1.000000 -0.000000
vn 0.000000 -1.000000 -0.000000
vn 0.000000 -1.000000 0.000000
vn 0.000000 -1.000000 0.000000
vn 0.000000 -1.000000 0.000000
vn 0.000000 -1.000000 0.000000
vn 0.587787 0.000000 -0.809016
vn 0.587787 0.000000 -0.809016
vn 0.587787 0.000000 -0.809016
vn 0.587787 0.000000 -0.809016
vn -0.000001 0.000000 -1.000000
vn -0.000001 0.000000 -1.000000
vn -0.000001 0.000000 -1.000000
vn -0.000001 0.000000 -1.000000
vn -0.587786 0.000000 -0.809017
vn -0.587786 0.000000 -0.809017
vn -0.587786 0.000000 -0.809017
vn -0.587786 0.000000 -0.809017
vn -0.951056 0.000000 -0.309018
vn -0.951056 0.000000 -0.309018
vn -0.951056 0.000000 -0.309018
vn -0.951056 0.000000 -0.309018
vn -0.951056 0.000000 0.309018
vn -0.951056 0.000000 0.309018
vn -0.951056 0.000000 0.309018
vn -0.951056 0.000000 0.309018
vn -0.587786 0.000000 0.809017
vn -0.587786 0.000000 0.809017
vn -0.587786 0.000000 0.809017
vn -0.587786 0.000000 0.809017
vn 0.000000 0.000000 1.000000
vn 0.000000 0.000000 1.000000
vn 0.000000 0.000000 1.000000
vn 0.000000 0.000000 1.000000
vn 0.587785 0.000000 0.809017
vn 0.587785 0.000000 0.809017
vn 0.587785 0.000000 0.809017
vn 0.587785 0.000000 0.809017
vn 0.951056 0.000000 0.309018
vn 0.951056 0.000000 0.309018
vn 0.951056 0.000000 0.309018
vn 0.951056 0.000000 0.309018
vn 0.951056 0.000000 -0.309018
vn 0.951056 0.000000 -0.309018
vn 0.951056 0.000000 -0.309018
vn 0.951056 0.000000 -0.309018
vn 0.000000 1.000000 0.000000
vn 0.000000 1.000000 0.000000
vn 0.000000 1.000000 0.000000
vn 0.000000 1.000000 0.000000
vn -1.000000 0.000000 0.000000
vn -1.000000 0.000000 0.000000
vn -1.000000 0.000000 0.000000
vn -1.000000 0.000000 0.000000
vn 0.000000 -1.000000 0.000000
vn 0.000000 -1.000000 0.000000
vn 1.000000 0.000000 0.000000
vn 1.000000 0.000000 0.000000
vn 1.000000 0.000000 0.000000
vn 1.000000 0.000000 0.000000
vn -1.000000 0.000000 0.000000
vn -1.000000 0.000000 0.000000
vn 0.000000 1.000000 0.000000
vn 0.000000 1.000000 0.000000
vn 0.000000 1.000000 0.000000
vn 0.000000 1.000000 0.000000
vn 0.000000 1.000000 0.000000
vn 0.000000 1.000000 0.000000
s off
g Candle
usemtl lambert2SG
f 1/1/1 2/2/2 12/124/3 11/118/4
f 2/2/5 3/5/6 13/123/7 12/124/8
f 3/5/9 4/7/10 14/122/11 13/123/12
f 4/7/13 5/9/14 15/121/15 14/122/16
f 5/9/17 6/11/18 16/120/19 15/121/20
f 6/11/21 7/13/22 17/154/23 16/120/24
f 8/15/25 9/16/26 19/119/27 18/116/28
f 9/16/29 10/19/30 20/117/31 19/119/32
f 10/19/33 1/1/34 11/118/35 20/117/36
s 1
f 93/21/37 92/22/38 94/23/39
f 95/24/40 93/21/37 94/23/39
f 96/25/41 95/24/40 94/23/39
f 97/26/42 96/25/41 94/23/39
f 98/27/43 97/26/42 94/23/39
f 99/155/44 98/27/43 94/23/39
f 100/156/45 99/155/44 94/23/39
f 101/30/46 100/156/45 94/23/39
f 102/31/47 101/30/46 94/23/39
f 92/22/38 102/31/47 94/23/39
s 2
f 41/32/48 42/150/49 43/34/50
f 42/150/49 44/149/51 43/34/50
f 44/149/51 45/148/52 43/34/50
f 45/148/52 46/147/53 43/34/50
f 46/147/53 47/145/54 43/34/50
f 47/145/54 48/144/55 43/34/50
f 48/144/55 49/142/56 43/34/50
f 49/142/56 50/141/57 43/34/50
f 50/141/57 51/139/58 43/34/50
f 51/139/58 41/32/48 43/34/50
s off
f 11/4/59 12/3/60 22/43/61 21/44/62
f 12/3/63 13/6/64 23/45/65 22/43/66
f 13/6/67 14/8/68 24/46/69 23/45/70
f 14/8/71 15/10/72 25/47/73 24/46/74
f 15/10/75 16/12/76 26/48/77 25/47/78
s 3
f 16/12/79 17/115/80 27/49/81 26/48/82
f 18/18/83 19/17/84 29/50/85 28/51/86
s off
f 19/17/87 20/20/88 30/52/89 29/50/90
f 20/20/91 11/4/92 21/44/93 30/52/94
f 21/44/95 22/43/96 32/138/97 31/130/98
f 22/43/99 23/45/100 33/137/101 32/138/102
f 23/45/103 24/46/104 34/136/105 33/137/106
f 24/46/107 25/47/108 35/135/109 34/136/110
f 25/47/111 26/48/112 36/134/113 35/135/114
f 26/48/115 27/49/116 37/133/117 36/134/118
s 3
f 27/49/81 28/51/86 38/132/119 37/133/120
s off
f 28/51/121 29/50/122 39/131/123 38/132/124
f 29/50/125 30/52/126 40/129/127 39/131/128
f 30/52/129 21/44/130 31/130/131 40/129/132
f 31/54/133 32/53/134 42/33/135 41/140/136
f 32/53/137 33/55/138 44/35/139 42/33/140
f 33/55/141 34/56/142 45/36/143 44/35/144
f 34/56/145 35/57/146 46/37/147 45/36/148
f 35/57/149 36/58/150 47/38/151 46/37/152
f 36/58/153 37/146/154 48/143/155 47/38/156
f 37/59/157 38/60/158 49/40/159 48/39/160
f 38/60/161 39/61/162 50/41/163 49/40/164
f 39/61/165 40/62/166 51/42/167 50/41/168
f 40/62/169 31/54/170 41/140/171 51/42/172
s 6
f 7/153/173 8/151/174 53/185/175 52/182/176
f 8/151/174 18/152/177 54/178/178 53/185/175
f 17/14/179 7/153/173 52/182/176 55/179/180
s 3
f 18/18/83 28/51/86 56/127/181 54/128/182
f 28/51/86 27/49/81 57/126/183 56/127/181
f 27/49/81 17/115/80 55/125/184 57/126/183
s 7
f 52/64/185 53/63/186 59/166/187 58/163/188
s 8
f 53/63/189 54/186/190 60/165/191 59/166/192
s off
f 54/186/193 55/177/194 61/164/195 60/165/196
s 9
f 55/177/197 52/183/198 58/184/199 61/164/200
s 10
f 55/66/201 54/65/202 63/170/203 62/167/204
s 11
f 54/65/205 56/67/206 64/169/207 63/170/208
s 12
f 56/67/209 57/68/210 65/168/211 64/169/212
s 13
f 57/68/213 55/180/214 62/181/215 65/168/216
s 7
f 58/70/188 59/69/187 67/77/217 66/78/218
s 8
f 59/69/192 60/71/191 68/79/219 67/77/220
s off
f 60/71/221 61/72/222 69/80/223 68/79/224
s 9
f 61/72/200 58/176/199 66/173/225 69/80/226
s 10
f 62/74/204 63/73/203 71/81/227 70/82/228
s 11
f 63/73/208 64/75/207 72/83/229 71/81/230
s 12
f 64/75/212 65/175/211 73/174/231 72/83/232
s 13
f 65/76/216 62/74/215 70/82/233 73/84/234
s off
f 70/82/235 71/81/236 75/85/237 74/86/238
s 11
f 71/81/230 72/83/229 76/87/239 75/85/240
s 12
f 72/83/232 73/174/231 77/171/241 76/87/242
s 13
f 73/84/234 70/82/233 74/86/243 77/88/244
s off
f 66/78/245 67/77/246 79/89/247 78/90/248
s 8
f 67/77/220 68/79/219 80/91/249 79/89/250
s off
f 68/79/251 69/80/252 81/92/253 80/91/254
s 9
f 69/80/226 66/173/225 78/172/255 81/92/256
s off
f 75/85/257 76/87/258 79/89/259 80/91/260
f 76/87/261 77/171/262 78/90/263 79/89/264
f 77/88/265 74/86/266 81/92/267 78/172/268
f 74/86/269 75/85/270 80/91/271 81/92/272
f 2/2/273 1/1/274 82/93/275 83/94/276
f 3/5/277 2/2/278 83/94/279 84/95/280
f 4/7/281 3/5/282 84/95/283 85/96/284
f 5/9/285 4/7/286 85/96/287 86/97/288
f 6/11/289 5/9/290 86/97/291 87/98/292
f 7/13/293 6/11/294 87/98/295 88/158/296
f 8/15/297 7/13/298 88/158/299 89/157/300
f 9/16/301 8/15/302 89/157/303 90/101/304
f 10/19/305 9/16/306 90/101/307 91/102/308
f 1/1/309 10/19/310 91/102/311 82/93/312
f 83/94/313 82/93/314 92/22/315 93/21/316
f 84/95/317 83/94/318 93/21/319 95/24/320
f 85/96/321 84/95/322 95/24/323 96/25/324
f 86/97/325 85/96/326 96/25/327 97/26/328
f 87/98/329 86/97/330 97/26/331 98/27/332
f 88/158/333 87/98/334 98/27/335 99/155/336
f 104/103/337 103/161/338 105/160/339 106/159/340
f 90/101/341 89/157/342 100/156/343 101/30/344
f 91/102/345 90/101/346 101/30/347 102/31/348
f 82/93/349 91/102/350 102/31/351 92/22/352
f 89/100/353 88/162/354 103/161/355 104/103/356
f 88/99/357 99/28/358 105/105/359 103/104/360
s 1
f 99/28/44 100/29/45 106/106/361 105/105/362
s off
f 100/29/363 89/100/364 104/103/365 106/106/366
s 14
f 110/107/367 107/108/368 108/109/369 109/110/370
f 109/110/370 108/109/369 111/111/371 112/112/372
f 112/112/372 111/111/371 113/113/373 114/114/374
